<svg width="165" height="27" viewBox="0 0 165 27" fill="none" xmlns="http://www.w3.org/2000/svg">
<path d="M5.456 13.68H16.208V17.84H5.456V13.68ZM5.84 26H0.656V3.6H17.584V7.76H5.84V26ZM20.7415 26V8.784H25.7335V26H20.7415ZM23.2375 6.384C22.3202 6.384 21.5735 6.11733 20.9975 5.584C20.4215 5.05067 20.1335 4.38933 20.1335 3.6C20.1335 2.81067 20.4215 2.14933 20.9975 1.616C21.5735 1.08267 22.3202 0.815998 23.2375 0.815998C24.1548 0.815998 24.9015 1.072 25.4775 1.584C26.0535 2.07467 26.3415 2.71467 26.3415 3.504C26.3415 4.336 26.0535 5.02933 25.4775 5.584C24.9228 6.11733 24.1762 6.384 23.2375 6.384ZM40.8305 8.528C42.1958 8.528 43.4118 8.80533 44.4785 9.36C45.5665 9.89333 46.4198 10.7253 47.0385 11.856C47.6572 12.9653 47.9665 14.3947 47.9665 16.144V26H42.9745V16.912C42.9745 15.5253 42.6652 14.5013 42.0465 13.84C41.4492 13.1787 40.5958 12.848 39.4865 12.848C38.6972 12.848 37.9825 13.0187 37.3425 13.36C36.7238 13.68 36.2332 14.1813 35.8705 14.864C35.5292 15.5467 35.3585 16.4213 35.3585 17.488V26H30.3665V8.784H35.1345V13.552L34.2385 12.112C34.8572 10.96 35.7425 10.0747 36.8945 9.456C38.0465 8.83733 39.3585 8.528 40.8305 8.528ZM60.0085 26.256C58.3872 26.256 56.9258 25.8933 55.6245 25.168C54.3232 24.4213 53.2885 23.3867 52.5205 22.064C51.7738 20.7413 51.4005 19.184 51.4005 17.392C51.4005 15.5787 51.7738 14.0107 52.5205 12.688C53.2885 11.3653 54.3232 10.3413 55.6245 9.616C56.9258 8.89067 58.3872 8.528 60.0085 8.528C61.4592 8.528 62.7285 8.848 63.8165 9.488C64.9045 10.128 65.7472 11.0987 66.3445 12.4C66.9418 13.7013 67.2405 15.3653 67.2405 17.392C67.2405 19.3973 66.9525 21.0613 66.3765 22.384C65.8005 23.6853 64.9685 24.656 63.8805 25.296C62.8138 25.936 61.5232 26.256 60.0085 26.256ZM60.8725 22.16C61.6832 22.16 62.4192 21.968 63.0805 21.584C63.7418 21.2 64.2645 20.656 64.6485 19.952C65.0538 19.2267 65.2565 18.3733 65.2565 17.392C65.2565 16.3893 65.0538 15.536 64.6485 14.832C64.2645 14.128 63.7418 13.584 63.0805 13.2C62.4192 12.816 61.6832 12.624 60.8725 12.624C60.0405 12.624 59.2938 12.816 58.6325 13.2C57.9712 13.584 57.4378 14.128 57.0325 14.832C56.6485 15.536 56.4565 16.3893 56.4565 17.392C56.4565 18.3733 56.6485 19.2267 57.0325 19.952C57.4378 20.656 57.9712 21.2 58.6325 21.584C59.2938 21.968 60.0405 22.16 60.8725 22.16ZM65.3845 26V22.48L65.4805 17.36L65.1605 12.272V2.256H70.1525V26H65.3845Z" fill="#2A90D9"/>
<path d="M76.6608 26.256C75.8074 26.256 75.0714 25.968 74.4528 25.392C73.8554 24.7947 73.5568 24.0373 73.5568 23.12C73.5568 22.2027 73.8554 21.4667 74.4528 20.912C75.0714 20.336 75.8074 20.048 76.6608 20.048C77.5354 20.048 78.2714 20.336 78.8688 20.912C79.4661 21.4667 79.7648 22.2027 79.7648 23.12C79.7648 24.0373 79.4661 24.7947 78.8688 25.392C78.2714 25.968 77.5354 26.256 76.6608 26.256ZM93.6118 8.528C94.9771 8.528 96.1931 8.80533 97.2598 9.36C98.3478 9.89333 99.2011 10.7253 99.8198 11.856C100.438 12.9653 100.748 14.3947 100.748 16.144V26H95.7558V16.912C95.7558 15.5253 95.4464 14.5013 94.8278 13.84C94.2304 13.1787 93.3771 12.848 92.2678 12.848C91.4784 12.848 90.7638 13.0187 90.1238 13.36C89.5051 13.68 89.0144 14.1813 88.6518 14.864C88.3104 15.5467 88.1398 16.4213 88.1398 17.488V26H83.1478V2.256H88.1398V13.552L87.0198 12.112C87.6384 10.96 88.5238 10.0747 89.6758 9.456C90.8278 8.83733 92.1398 8.528 93.6118 8.528ZM113.59 26.256C111.755 26.256 110.123 25.872 108.694 25.104C107.286 24.336 106.166 23.2907 105.334 21.968C104.523 20.624 104.118 19.0987 104.118 17.392C104.118 15.664 104.523 14.1387 105.334 12.816C106.166 11.472 107.286 10.4267 108.694 9.68C110.123 8.912 111.755 8.528 113.59 8.528C115.403 8.528 117.024 8.912 118.454 9.68C119.883 10.4267 121.003 11.4613 121.814 12.784C122.624 14.1067 123.03 15.6427 123.03 17.392C123.03 19.0987 122.624 20.624 121.814 21.968C121.003 23.2907 119.883 24.336 118.454 25.104C117.024 25.872 115.403 26.256 113.59 26.256ZM113.59 22.16C114.422 22.16 115.168 21.968 115.83 21.584C116.491 21.2 117.014 20.656 117.398 19.952C117.782 19.2267 117.974 18.3733 117.974 17.392C117.974 16.3893 117.782 15.536 117.398 14.832C117.014 14.128 116.491 13.584 115.83 13.2C115.168 12.816 114.422 12.624 113.59 12.624C112.758 12.624 112.011 12.816 111.35 13.2C110.688 13.584 110.155 14.128 109.75 14.832C109.366 15.536 109.174 16.3893 109.174 17.392C109.174 18.3733 109.366 19.2267 109.75 19.952C110.155 20.656 110.688 21.2 111.35 21.584C112.011 21.968 112.758 22.16 113.59 22.16ZM133.407 26.256C131.38 26.256 129.801 25.744 128.671 24.72C127.54 23.6747 126.975 22.128 126.975 20.08V4.976H131.967V20.016C131.967 20.7413 132.159 21.3067 132.543 21.712C132.927 22.096 133.449 22.288 134.111 22.288C134.9 22.288 135.572 22.0747 136.127 21.648L137.471 25.168C136.959 25.5307 136.34 25.808 135.615 26C134.911 26.1707 134.175 26.256 133.407 26.256ZM124.319 13.008V9.168H136.255V13.008H124.319ZM148.286 26.256C146.323 26.256 144.595 25.872 143.102 25.104C141.63 24.336 140.488 23.2907 139.678 21.968C138.867 20.624 138.462 19.0987 138.462 17.392C138.462 15.664 138.856 14.1387 139.646 12.816C140.456 11.472 141.555 10.4267 142.942 9.68C144.328 8.912 145.896 8.528 147.646 8.528C149.331 8.528 150.846 8.89067 152.19 9.616C153.555 10.32 154.632 11.344 155.422 12.688C156.211 14.0107 156.606 15.6 156.606 17.456C156.606 17.648 156.595 17.872 156.574 18.128C156.552 18.3627 156.531 18.5867 156.51 18.8H142.526V15.888H153.885L151.966 16.752C151.966 15.856 151.784 15.0773 151.422 14.416C151.059 13.7547 150.558 13.2427 149.918 12.88C149.278 12.496 148.531 12.304 147.678 12.304C146.824 12.304 146.067 12.496 145.406 12.88C144.766 13.2427 144.264 13.7653 143.902 14.448C143.539 15.1093 143.358 15.8987 143.358 16.816V17.584C143.358 18.5227 143.56 19.3547 143.966 20.08C144.392 20.784 144.979 21.328 145.726 21.712C146.494 22.0747 147.39 22.256 148.414 22.256C149.331 22.256 150.131 22.1173 150.814 21.84C151.518 21.5627 152.158 21.1467 152.734 20.592L155.39 23.472C154.6 24.368 153.608 25.0613 152.414 25.552C151.219 26.0213 149.843 26.256 148.286 26.256ZM159.929 26V2.256H164.921V26H159.929Z" fill="#EE685F"/>
</svg>
