<svg width="20" height="20" viewBox="0 0 20 20" fill="none" xmlns="http://www.w3.org/2000/svg">
<path d="M17.3188 2.68129C17.2344 2.59733 17.1278 2.53921 17.0116 2.51374C16.8953 2.48828 16.7742 2.49653 16.6625 2.53754L2.9125 7.53754C2.79392 7.58252 2.69183 7.66251 2.61978 7.76689C2.54774 7.87126 2.50916 7.99509 2.50916 8.12191C2.50916 8.24874 2.54774 8.37256 2.61978 8.47694C2.69183 8.58132 2.79392 8.66131 2.9125 8.70629L8.9125 11.1063L11.3125 17.1063C11.3576 17.2197 11.4349 17.3174 11.5348 17.3873C11.6348 17.4573 11.753 17.4965 11.875 17.5C12.0013 17.4974 12.1239 17.4566 12.2265 17.383C12.3292 17.3094 12.4071 17.2064 12.45 17.0875L17.45 3.33754C17.4926 3.22696 17.5029 3.10656 17.4796 2.99037C17.4564 2.87417 17.4006 2.76698 17.3188 2.68129ZM11.875 15.125L10.1313 10.75L13.125 7.75629L12.2438 6.87504L9.225 9.89379L4.875 8.12504L15.8313 4.16879L11.875 15.125Z" fill="white"/>
</svg>
